<?xml version="1.0" encoding="UTF-8" standalone="no"?>
<!-- Created with Inkscape (http://www.inkscape.org/) -->

<svg
   xmlns:dc="http://purl.org/dc/elements/1.1/"
   xmlns:cc="http://creativecommons.org/ns#"
   xmlns:rdf="http://www.w3.org/1999/02/22-rdf-syntax-ns#"
   xmlns:svg="http://www.w3.org/2000/svg"
   xmlns="http://www.w3.org/2000/svg"
   xmlns:xlink="http://www.w3.org/1999/xlink"
   xmlns:sodipodi="http://sodipodi.sourceforge.net/DTD/sodipodi-0.dtd"
   xmlns:inkscape="http://www.inkscape.org/namespaces/inkscape"
   width="32px"
   height="32px"
   id="svg4113"
   version="1.1"
   inkscape:version="0.48.3.1 r9886"
   sodipodi:docname="cloud.svg"
   inkscape:export-filename="/home/maat/Munka/IK/cloud/miscellaneous/laborclient/cloudgui/cloud.png"
   inkscape:export-xdpi="180"
   inkscape:export-ydpi="180">
  <defs
     id="defs4115">
    <radialGradient
       inkscape:collect="always"
       xlink:href="#linearGradient3034"
       id="radialGradient6745"
       gradientUnits="userSpaceOnUse"
       gradientTransform="matrix(0.91098464,-0.68941106,-0.52931253,-0.699431,40.047884,602.97172)"
       cx="391.42856"
       cy="287.43375"
       fx="391.42856"
       fy="287.43375"
       r="145.96571" />
    <linearGradient
       inkscape:collect="always"
       id="linearGradient3034">
      <stop
         style="stop-color:#aaccee;stop-opacity:1;"
         offset="0"
         id="stop3036" />
      <stop
         style="stop-color:#aaccee;stop-opacity:0;"
         offset="1"
         id="stop3038" />
    </linearGradient>
    <radialGradient
       inkscape:collect="always"
       xlink:href="#linearGradient3024"
       id="radialGradient6747"
       gradientUnits="userSpaceOnUse"
       gradientTransform="matrix(0.80253714,-0.60679623,0.29834416,0.39458642,-154.50478,207.30449)"
       cx="318.85928"
       cy="314.71725"
       fx="318.85928"
       fy="314.71725"
       r="145.96571" />
    <linearGradient
       inkscape:collect="always"
       id="linearGradient3024">
      <stop
         style="stop-color:#b3defd;stop-opacity:0.5"
         offset="0"
         id="stop3026" />
      <stop
         style="stop-color:#b3defd;stop-opacity:0;"
         offset="1"
         id="stop3028" />
    </linearGradient>
    <radialGradient
       inkscape:collect="always"
       xlink:href="#linearGradient3050"
       id="radialGradient6749"
       gradientUnits="userSpaceOnUse"
       gradientTransform="matrix(0.95668304,-0.34646122,0.16844062,0.46511873,-181.17636,116.47568)"
       cx="292.64816"
       cy="299.75269"
       fx="292.64816"
       fy="299.75269"
       r="145.96571" />
    <linearGradient
       id="linearGradient3050"
       inkscape:collect="always">
      <stop
         id="stop3052"
         offset="0"
         style="stop-color:#b3defd;stop-opacity:0.5" />
      <stop
         id="stop3054"
         offset="1"
         style="stop-color:#b3defd;stop-opacity:0.7" />
    </linearGradient>
    <radialGradient
       inkscape:collect="always"
       xlink:href="#linearGradient3034"
       id="radialGradient7457"
       gradientUnits="userSpaceOnUse"
       gradientTransform="matrix(0.91098464,-0.68941106,-0.52931253,-0.699431,40.047884,602.97172)"
       cx="391.42856"
       cy="287.43375"
       fx="391.42856"
       fy="287.43375"
       r="145.96571" />
    <radialGradient
       inkscape:collect="always"
       xlink:href="#linearGradient3024"
       id="radialGradient7459"
       gradientUnits="userSpaceOnUse"
       gradientTransform="matrix(0.80253714,-0.60679623,0.29834416,0.39458642,-154.50478,207.30449)"
       cx="318.85928"
       cy="314.71725"
       fx="318.85928"
       fy="314.71725"
       r="145.96571" />
    <radialGradient
       inkscape:collect="always"
       xlink:href="#linearGradient3050"
       id="radialGradient7461"
       gradientUnits="userSpaceOnUse"
       gradientTransform="matrix(0.95668304,-0.34646122,0.16844062,0.46511873,-181.17636,116.47568)"
       cx="292.64816"
       cy="299.75269"
       fx="292.64816"
       fy="299.75269"
       r="145.96571" />
    <radialGradient
       r="145.96571"
       fy="299.75269"
       fx="292.64816"
       cy="299.75269"
       cx="292.64816"
       gradientTransform="matrix(0.95668304,-0.34646122,0.16844062,0.46511873,-181.17636,116.47568)"
       gradientUnits="userSpaceOnUse"
       id="radialGradient4111"
       xlink:href="#linearGradient3050"
       inkscape:collect="always" />
  </defs>
  <sodipodi:namedview
     id="base"
     pagecolor="#ffffff"
     bordercolor="#666666"
     borderopacity="1.0"
     inkscape:pageopacity="0.0"
     inkscape:pageshadow="2"
     inkscape:zoom="7.9180417"
     inkscape:cx="6.6070506"
     inkscape:cy="11.63422"
     inkscape:current-layer="layer1"
     showgrid="true"
     inkscape:grid-bbox="true"
     inkscape:document-units="px"
     inkscape:window-width="950"
     inkscape:window-height="1061"
     inkscape:window-x="0"
     inkscape:window-y="17"
     inkscape:window-maximized="0" />
  <metadata
     id="metadata4118">
    <rdf:RDF>
      <cc:Work
         rdf:about="">
        <dc:format>image/svg+xml</dc:format>
        <dc:type
           rdf:resource="http://purl.org/dc/dcmitype/StillImage" />
        <dc:title></dc:title>
      </cc:Work>
    </rdf:RDF>
  </metadata>
  <g
     id="layer1"
     inkscape:label="Layer 1"
     inkscape:groupmode="layer">
    <g
       id="g6661"
       transform="matrix(0.10449644,0,0,0.10449644,-9.9531247,2.8799027)"
       inkscape:export-filename="/home/maat/Munka/IK/cloud/miscellaneous/homepage/IK Cloud_files/cloud-migration.png"
       inkscape:export-xdpi="61.548325"
       inkscape:export-ydpi="61.548325">
      <path
         style="fill:url(#radialGradient7457);fill-opacity:1;stroke:none"
         d="m 256.14524,59.11126 c 24.62625,2.347316 49.86777,32.49978 53.75856,51.16324 8.62329,-27.43498 50.34441,-17.171137 59.85333,-0.71968 6.65814,11.5193 48.45788,5.51236 28.44657,28.00035 24.27442,15.34513 20.8571,65.07012 -42.70377,65.95822 l -176.71875,0 c -42.76196,-1.07615 -51.32274,-8.1926 -57.875,-33.40625 -5.53769,-21.30947 22.49377,-78.5932 62.40625,-64.25 11.6223,-24.03732 44.1151,-49.483183 72.83281,-46.74588 z"
         id="path6663"
         inkscape:connector-curvature="0"
         sodipodi:nodetypes="acscccsca" />
      <path
         sodipodi:nodetypes="acacccsca"
         inkscape:connector-curvature="0"
         id="path6665"
         d="M 276.48862,56.4684 C 249.95136,55.91176 211.62085,77.96818 207.73006,96.63164 199.10677,69.19666 174.15148,70.8254 157.87673,77.91196 c -18.8365,8.20202 -43.45788,34.51236 -23.44657,57.00036 -24.27442,15.34513 -20.8571,65.07012 42.70377,65.95822 l 176.71875,0 c 42.76196,-1.07615 51.32274,-8.1926 57.875,-33.40625 5.53769,-21.30947 -22.49377,-78.59321 -62.40625,-64.25001 -11.6223,-24.03732 -43.99128,-46.1409 -72.83281,-46.74588 z"
         style="fill:url(#radialGradient7459);fill-opacity:1;stroke:none" />
      <path
         style="fill:url(#radialGradient4111);fill-opacity:1;stroke:none"
         d="m 255.98862,62.9684 c -26.53726,-0.55664 -64.86777,21.49978 -68.75856,40.16324 -8.62329,-27.43498 -33.57858,-25.80624 -49.85333,-18.71968 -18.8365,8.20202 -43.45788,34.51236 -23.44657,57.00036 -24.27442,15.34513 -20.8571,65.07012 42.70377,65.95822 l 176.71875,0 c 42.76196,-1.07615 51.32274,-8.1926 57.875,-33.40625 5.53769,-21.30947 -22.49377,-78.59321 -62.40625,-64.25001 -11.6223,-24.03732 -43.99128,-46.1409 -72.83281,-46.74588 z"
         id="path6667"
         inkscape:connector-curvature="0"
         sodipodi:nodetypes="acacccsca" />
    </g>
    <g
       transform="matrix(0.10449644,0,0,0.10449644,-9.9531247,2.8799027)"
       id="g7143"
       inkscape:export-filename="/home/maat/Munka/IK/cloud/miscellaneous/homepage/IK Cloud_files/cloud-migration.png"
       inkscape:export-xdpi="61.548325"
       inkscape:export-ydpi="61.548325">
      <path
         sodipodi:nodetypes="acscccsca"
         inkscape:connector-curvature="0"
         id="path7145"
         d="m 256.14524,59.11126 c 24.62625,2.347316 49.86777,32.49978 53.75856,51.16324 8.62329,-27.43498 50.34441,-17.171137 59.85333,-0.71968 6.65814,11.5193 48.45788,5.51236 28.44657,28.00035 24.27442,15.34513 20.8571,65.07012 -42.70377,65.95822 l -176.71875,0 c -42.76196,-1.07615 -51.32274,-8.1926 -57.875,-33.40625 -5.53769,-21.30947 22.49377,-78.5932 62.40625,-64.25 11.6223,-24.03732 44.1151,-49.483183 72.83281,-46.74588 z"
         style="fill:url(#radialGradient6745);fill-opacity:1;stroke:none" />
      <path
         style="fill:url(#radialGradient6747);fill-opacity:1;stroke:none"
         d="M 276.48862,56.4684 C 249.95136,55.91176 211.62085,77.96818 207.73006,96.63164 199.10677,69.19666 174.15148,70.8254 157.87673,77.91196 c -18.8365,8.20202 -43.45788,34.51236 -23.44657,57.00036 -24.27442,15.34513 -20.8571,65.07012 42.70377,65.95822 l 176.71875,0 c 42.76196,-1.07615 51.32274,-8.1926 57.875,-33.40625 5.53769,-21.30947 -22.49377,-78.59321 -62.40625,-64.25001 -11.6223,-24.03732 -43.99128,-46.1409 -72.83281,-46.74588 z"
         id="path7147"
         inkscape:connector-curvature="0"
         sodipodi:nodetypes="acacccsca" />
      <path
         sodipodi:nodetypes="acacccsca"
         inkscape:connector-curvature="0"
         id="path7149"
         d="m 255.98862,62.9684 c -26.53726,-0.55664 -64.86777,21.49978 -68.75856,40.16324 -8.62329,-27.43498 -33.57858,-25.80624 -49.85333,-18.71968 -18.8365,8.20202 -43.45788,34.51236 -23.44657,57.00036 -24.27442,15.34513 -20.8571,65.07012 42.70377,65.95822 l 176.71875,0 c 42.76196,-1.07615 51.32274,-8.1926 57.875,-33.40625 5.53769,-21.30947 -22.49377,-78.59321 -62.40625,-64.25001 -11.6223,-24.03732 -43.99128,-46.1409 -72.83281,-46.74588 z"
         style="fill:url(#radialGradient6749);fill-opacity:1;stroke:none" />
    </g>
    <path
       style="color:#000000;fill:#023397;fill-opacity:1;fill-rule:nonzero;stroke:#013397;stroke-width:0.94207054;stroke-miterlimit:4;stroke-dasharray:none;marker:none;visibility:visible;display:inline;overflow:visible;enable-background:accumulate"
       d="M 1.5063263,16.860746 C 0.4156576,11.32735 5.5426162,6.5060803 9.4930905,12.794092 12.390583,10.362512 18.261384,5.4751042 21.924479,10.356943 c 4.63917,5.709372 8.828435,2.091553 9.150998,7.200829 1.718965,7.440276 -8.53632,6.237142 -13.058126,7.023742 -5.243812,-0.597269 -11.6068286,1.83668 -16.0931921,-1.584416 -2.83679016,-2.868664 0.4677062,-8.372045 -0.256227,-3.038949 1.6721659,5.015472 8.2408874,3.367343 12.1150121,3.959711 4.986922,-0.85089 11.314427,1.082767 15.334753,-2.286781 2.765266,-4.396332 1.928251,-6.112638 -6.005384,-8.869924 C 20.710434,8.941212 14.735657,9.414075 11.152431,12.552675 6.4967083,13.692321 4.221964,7.4719519 2.0955523,15.655441 l -0.2846878,0.607473 z"
       id="path7850"
       inkscape:connector-curvature="0"
       sodipodi:nodetypes="cccccccccccccc"
       inkscape:export-filename="/home/maat/Munka/IK/cloud/miscellaneous/homepage/IK Cloud_files/cloud-migration.png"
       inkscape:export-xdpi="61.548325"
       inkscape:export-ydpi="61.548325" />
  </g>
</svg>
